<svg width="121" height="48" xmlns="http://www.w3.org/2000/svg" xmlns:xlink="http://www.w3.org/1999/xlink" overflow="hidden"><defs><clipPath id="clip0"><rect x="32" y="11" width="121" height="48"/></clipPath></defs><g clip-path="url(#clip0)" transform="translate(-32 -11)"><path d="M50.0724 7.36789C49.9327 7.36369 49.792 7.38113 49.6568 7.42134 47.569 7.9233 45.4996 8.5128 43.4799 9.24362 41.9707 9.78337 40.4982 10.4482 39.165 11.3432 38.6231 11.708 38.0975 12.0968 37.6041 12.5253 37.4876 12.6279 37.3591 12.7357 37.3267 12.8976 37.4843 13.8714 38.4116 14.396 39.2126 14.803 40.5285 15.4086 42.0116 15.7562 43.4625 15.5921 43.0307 15.225 42.4305 15.1669 41.9739 14.8419 41.7882 14.7027 41.784 14.4521 41.7343 14.2481 41.2885 14.3366 40.8652 14.5072 40.4237 14.6097 40.8307 14.3593 41.2734 14.1747 41.6965 13.9545 43.9592 12.984 46.4052 12.5662 48.8308 12.2338 50.5213 12.0492 52.2476 11.9909 53.883 11.4803 53.7502 11.1132 53.6832 10.5746 53.2093 10.5174 52.1902 9.98516 51.7024 8.88835 51.1152 7.96214 50.8998 7.58809 50.4913 7.38049 50.0724 7.36789Z" stroke="#000000" stroke-width="0.10799" fill="#FFFFFF" transform="matrix(1 0 0 1.10346 32 11.0067)"/><path d="M71.0047 7.36931C70.6811 7.36436 70.3578 7.45952 70.1262 7.69554 69.7991 8.03666 69.609 8.47705 69.3586 8.87107 69.0002 9.49502 68.5372 10.0737 67.924 10.4623 67.7664 10.566 67.5269 10.5465 67.433 10.7354 67.2926 10.9664 67.2029 11.2278 67.1544 11.4922 68.792 11.9802 70.5084 12.0319 72.1935 12.2424 74.8663 12.5792 77.5694 13.0693 80.0047 14.2729 80.2109 14.3852 80.4214 14.4975 80.6276 14.613 80.1839 14.4985 79.7478 14.3538 79.3084 14.2265 79.2361 14.4466 79.2286 14.7242 79.0127 14.8623 78.5625 15.1657 77.9743 15.2219 77.5662 15.59 78.2593 15.6829 78.9618 15.6181 79.6462 15.4896 80.9783 15.2305 82.3363 14.7351 83.309 13.7527L83.3208 13.7569C83.5346 13.4687 83.6512 13.1287 83.6943 12.7735 82.1355 11.3302 80.2508 10.2712 78.2743 9.51449 76.0494 8.65629 73.7524 7.99887 71.4379 7.4343 71.2992 7.39449 71.1519 7.37156 71.0047 7.36931Z" stroke="#000000" stroke-width="0.10799" fill="#FFFFFF" transform="matrix(1 0 0 1.10346 32 11.0067)"/><path d="M60.5135 0.000147931C60.4198-0.00335774 60.3264 0.0553691 60.3091 0.184369 59.9248 1.45062 59.5829 2.76009 58.8574 3.88492 58.5962 4.29945 58.2193 4.62866 57.794 4.86723 56.7663 5.45447 55.62 5.7794 54.4973 6.13132 54.3203 6.17774 54.1767 6.29325 54.0493 6.41848 54.1789 6.52643 54.3137 6.63654 54.481 6.68619 55.6879 7.07157 56.938 7.40843 58.0186 8.09607 58.6587 8.49117 59.0333 9.17121 59.3463 9.83186L59.3559 9.83186C59.7564 10.7538 60.0297 11.721 60.3233 12.6796 60.4064 12.9559 60.7378 12.7951 60.7432 12.5673 60.9893 11.6476 61.3001 10.7483 61.6423 9.86207L61.6187 9.79851 61.6932 9.77684C61.8961 9.42924 62.0559 9.05469 62.3106 8.7384 62.6226 8.30768 63.0846 8.02703 63.5445 7.77981 63.7118 7.69994 63.8813 7.62 64.0508 7.5412 64.855 7.20763 65.6872 6.95073 66.5184 6.69489 66.6825 6.62257 66.9557 6.57292 66.9082 6.33435 66.7571 6.20805 66.5693 6.14109 66.3858 6.08387 65.2933 5.75031 64.1847 5.41998 63.1915 4.84461 62.7652 4.6028 62.3981 4.2616 62.1412 3.84492 61.4373 2.72872 61.0931 1.44088 60.7196 0.189746 60.7012 0.0693814 60.6071 0.00365604 60.5135 0.000147931Z" stroke="#000000" stroke-width="0.10799" fill="#FFFFFF" transform="matrix(1 0 0 1.10346 32 11.0067)"/><path d="M11.568 8.3241C10.7993 8.31949 10.0304 8.39075 9.27596 8.54074 6.65602 9.06754 4.29399 10.6253 2.66502 12.7292 1.76472 13.8973 1.06735 15.2207 0.621519 16.6262 0.158413 18.0857-0.0510267 19.6262 0.0105048 21.1558 0.0461282 21.9687 0.144384 22.7794 0.328979 23.5717 0.463916 24.1665 0.642023 24.7505 0.857922 25.3216L0.869782 25.327C1.17852 26.1755 1.60388 26.9786 2.09181 27.7364 2.16414 27.8077 2.19983 27.975 2.31857 27.9718L2.26465 27.9847C2.93178 28.9541 3.74569 29.82 4.66111 30.5605L4.69241 30.5616C5.54629 31.2708 6.5297 31.8203 7.56279 32.224 9.02443 32.8048 10.6124 33.0238 12.1787 32.9439 14.7232 32.8489 17.3333 32.3491 19.5322 31.0127 20.2059 30.6651 20.8125 30.1707 21.3393 29.6234 21.3426 29.0815 21.3425 28.5396 21.3479 27.9988 21.3468 27.1481 21.3621 26.2976 21.3405 25.448 21.3729 24.8921 21.2852 24.3135 21.5098 23.7856L21.4903 23.8114C21.7181 23.385 22.0757 23.0266 22.5118 22.8161 22.9079 22.598 23.4087 22.5948 23.7617 22.3001 23.7585 22.2407 23.7509 22.122 23.7477 22.0626 23.4541 22.0216 23.1583 22.0378 22.8636 22.0367 19.2667 22.0388 15.6698 22.0356 12.0729 22.0388 11.8592 21.9838 11.5913 22.1835 11.7565 22.4048 12.0113 22.6509 12.3946 22.6855 12.7195 22.7913 13.6911 22.9931 14.6357 23.4455 15.25 24.2465 15.4432 24.6157 15.6374 25.0031 15.6374 25.4306 15.6504 26.6969 15.6266 27.9622 15.646 29.2284 15.5996 29.8783 15.5964 30.5529 15.3168 31.1552 14.8073 31.7133 13.975 31.4758 13.31 31.5104 12.1636 31.3398 11.0841 30.8238 10.2205 30.053 9.41733 29.3417 8.76964 28.4674 8.26551 27.5228 7.81644 26.6657 7.47419 25.7566 7.22375 24.8229 7.09205 24.2788 6.98625 23.7293 6.89341 23.1777 6.77899 22.1932 6.72076 21.2022 6.76502 20.2123 6.83734 18.9687 7.04029 17.7338 7.38789 16.5377L7.40292 16.5367C7.79045 15.2316 8.39931 13.9923 9.21002 12.8976 9.73466 12.2564 10.3155 11.6508 11.0139 11.1974 12.1636 10.417 13.6329 10.0887 14.9941 10.4212 16.4633 10.7591 17.6821 11.7642 18.5878 12.9343 19.1761 13.7235 19.6478 14.5935 20.0159 15.5046 20.1778 15.93 20.3312 16.3584 20.4499 16.7988 20.532 17.0676 20.5674 17.3743 20.7865 17.5751 21.1481 16.8993 21.0727 16.1005 21.1558 15.3611 21.1968 14.6184 21.2153 13.8746 21.2164 13.1319 21.1894 12.3838 21.2303 11.6109 20.9885 10.8919 19.6456 10.9265 18.3707 10.4386 17.2102 9.80275 15.4956 8.84375 13.5326 8.33587 11.568 8.32408Z" stroke="#000000" stroke-width="0.10799" fill="#FFFFFF" transform="matrix(1 0 0 1.10346 32 11.0067)"/><path d="M22.8504 16.0676C22.7887 16.0664 22.7268 16.0672 22.665 16.0693 23.1421 16.5432 23.7875 16.8671 24.1125 17.4824 24.5723 18.3589 24.5746 19.3811 24.5573 20.3462 24.5692 21.1644 24.5584 21.9828 24.5615 22.8011 24.5637 23.6809 24.5615 24.5595 24.5615 25.4382 25.0171 24.9913 25.5061 24.5769 26.0242 24.2033 26.7421 23.6884 27.5075 23.2436 28.3041 22.8625 28.3031 22.0583 28.3032 21.254 28.3032 20.4509 28.314 19.991 28.2816 19.5302 28.3183 19.0714 28.3723 18.6396 28.7997 18.321 29.2294 18.3567 30.1265 18.3599 31.0235 18.348 31.9206 18.3642 32.6687 18.3869 33.3703 18.7226 33.9317 19.203 34.6161 19.8442 35.0878 20.6799 35.3847 21.5629 35.4138 21.5283 35.4721 21.457 35.5013 21.4224 35.6082 20.6722 35.4786 19.9058 35.3631 19.162 35.212 18.4527 35.0112 17.7544 34.7672 17.0722 32.1602 17.0743 29.5446 17.1013 26.9495 16.8109 25.7566 16.649 24.5778 16.3931 23.4023 16.134 23.2209 16.0903 23.0359 16.0709 22.8504 16.0676Z" stroke="#000000" stroke-width="0.10799" fill="#FFFFFF" transform="matrix(1 0 0 1.10346 32 11.0067)"/><path d="M32.9404 22.3626C32.6739 22.3634 32.4037 22.3954 32.1473 22.4167 29.5489 22.7546 27.0498 23.8427 25.016 25.4932 24.3327 26.0902 23.7142 26.7606 23.181 27.4957 22.7394 28.1294 22.3368 28.7934 22.0291 29.5026 22.7794 29.005 23.5631 28.5601 24.3652 28.1499 24.4299 28.1207 24.4958 28.0917 24.5627 28.0636 24.5616 28.1943 24.5615 28.3249 24.5615 28.4566 24.6133 29.1194 24.4731 29.7702 24.2518 30.3888L24.282 30.4612 24.1924 30.4881C23.7304 31.4111 22.9003 32.0534 22.149 32.727 22.7232 32.7442 23.2739 32.5608 23.832 32.454 25.3239 32.1344 26.8523 32.0275 28.3755 32.0275 30.7234 32.0296 33.0724 32.0232 35.4203 32.0308 35.7172 31.2687 35.9396 30.4794 36.1112 29.6806 36.2191 29.0599 36.2818 28.4306 36.2774 27.8013 36.2623 27.6405 36.2839 27.4062 36.0928 27.3468 35.8014 28.1921 35.3317 28.9768 34.7002 29.6105 34.0428 30.2452 33.162 30.6565 32.2433 30.6759 31.2016 30.6824 30.16 30.6813 29.1194 30.677 28.8614 30.69 28.6562 30.5215 28.4673 30.3715 28.3831 30.1729 28.2893 29.9699 28.3033 29.7497 28.299 29.1884 28.3053 28.6281 28.301 28.0678 28.3075 27.5907 28.3022 27.1137 28.3033 26.6376 28.4695 26.5944 28.6356 26.5522 28.8029 26.5112 29.1656 26.4302 29.5306 26.3547 29.8965 26.2845 31.7792 25.9509 33.6919 25.802 35.6026 25.7923 35.7128 25.7847 35.8208 25.7664 35.9288 25.7383 35.8122 25.4166 35.6082 25.1296 35.3178 24.9428 34.9712 24.7388 34.5632 24.6566 34.2285 24.4343 33.7028 23.9852 33.7925 23.208 33.9145 22.6024 33.6199 22.4118 33.2831 22.3614 32.9404 22.3626Z" stroke="#000000" stroke-width="0.10799" fill="#FFFFFF" transform="matrix(1 0 0 1.10346 32 11.0067)"/><path d="M49.8019 17.0693C48.6973 17.0692 47.5929 17.0737 46.4885 17.0829 46.3223 17.4089 46.7853 17.4898 46.9839 17.6107 47.7773 17.9562 47.9813 18.917 47.9089 19.6997 47.9122 20.1919 47.9036 20.6842 47.9123 21.1764 47.9112 22.5053 47.9046 23.834 47.91 25.1629 47.9133 25.558 47.9111 25.9531 47.9089 26.3482 47.7438 26.1388 47.5787 25.9283 47.4136 25.7189 46.7713 24.8822 46.1116 24.0575 45.4682 23.222 45.0677 22.7135 44.6694 22.203 44.2721 21.6935 43.904 21.2218 43.5349 20.7521 43.169 20.2803 42.3356 19.2095 41.4968 18.144 40.6634 17.0731 39.3281 17.0785 37.9916 17.057 36.6562 17.0829L36.652 17.329C36.9802 17.5913 37.452 17.6647 37.6949 18.0404 38.2196 18.6924 38.0446 19.5658 38.0791 20.3355 38.078 21.0221 38.0694 21.7074 38.078 22.3929 38.0726 23.0082 38.0792 23.6247 38.0749 24.24 38.0792 24.8403 38.0737 25.4414 38.077 26.0416 38.0726 26.9182 38.0824 27.7947 38.0716 28.6713 38.0597 29.3179 38.147 29.9807 37.957 30.6101 37.8307 30.854 37.6991 31.1078 37.4811 31.2838 37.2544 31.4792 36.9543 31.5514 36.7071 31.7155 36.584 31.7781 36.639 31.9281 36.6433 32.0339 38.853 32.0231 41.0639 32.0447 43.2737 32.0231 43.3471 31.6734 42.9486 31.6066 42.7219 31.477 42.2945 31.2967 42.0386 30.88 41.8875 30.4612 41.7526 29.7304 41.8486 28.9843 41.813 28.247 41.8216 27.5022 41.8142 26.7573 41.8142 26.0125 41.8207 25.5343 41.8108 25.056 41.8184 24.5778 41.8152 24.1741 41.8164 23.7705 41.8153 23.3678 41.8196 22.8205 41.8131 22.2731 41.8174 21.7258L41.8045 21.5057C41.8185 21.4992 41.8455 21.4851 41.8585 21.4775 42.0765 21.7992 42.3259 22.0982 42.5623 22.4059 42.8365 22.7524 43.1053 23.1033 43.3805 23.4488 43.8836 24.0943 44.3834 24.7419 44.8918 25.3831 45.3161 25.9326 45.7424 26.481 46.172 27.0261 46.823 27.8422 47.4448 28.6854 48.1086 29.4907 48.6495 30.2151 49.2196 30.9166 49.7669 31.6356 50.0778 32.0318 50.42 32.4032 50.7892 32.7465 51.3624 33.2312 52.0694 33.597 52.8272 33.6478 52.7236 33.284 52.4624 32.9968 52.2995 32.661L52.2259 32.6299 52.2626 32.5866C52.1287 32.1171 51.9322 31.6648 51.8394 31.1834 51.7649 30.7613 51.71 30.3349 51.6808 29.9074 51.6333 29.0525 51.656 28.1952 51.6484 27.3392 51.6527 26.3903 51.6472 25.4414 51.6462 24.4915 51.658 23.6052 51.6527 20.0018 51.643 19.4286 51.616 18.7399 51.8633 17.9508 52.5282 17.6345 52.7603 17.4963 53.1588 17.4403 53.1156 17.084 52.0112 17.0743 50.9065 17.0695 49.8019 17.0693Z" stroke="#000000" stroke-width="0.10799" fill="#FFFFFF" transform="matrix(1 0 0 1.10346 32 11.0067)"/><path d="M59.9625 13.8599C59.6552 13.8617 59.3476 13.8843 59.0408 13.934 57.5306 14.1477 56.0863 14.9455 55.2 16.202 54.8772 16.678 54.6322 17.2038 54.4886 17.7597L54.494 17.7716C54.2263 18.8414 54.3677 19.9792 54.7315 21.009L54.7434 21.0112C54.996 21.7118 55.4061 22.3488 55.9123 22.8939L55.9286 22.8927C56.572 23.5296 57.3418 24.0285 58.091 24.5261 59.626 25.6358 61.2419 26.631 62.7424 27.7883 63.1602 28.1747 63.4548 28.6842 63.5412 29.2499 63.553 29.74 63.4949 30.2312 63.3146 30.6889 63.0631 31.2297 62.6259 31.68 62.0807 31.925 61.4535 32.2402 60.7335 32.212 60.0556 32.1322 59.7328 32.0793 59.4133 32.0091 59.0991 31.9238 58.4806 31.7295 57.8988 31.4382 57.3623 31.0787 57.1767 30.934 56.993 30.7893 56.8128 30.6414L56.558 30.4168C56.3928 30.2474 56.2289 30.0779 56.0669 29.9052 55.729 29.5144 55.4191 29.1009 55.1385 28.667 54.6872 28.0117 54.4064 27.2485 53.9196 26.6181 53.7339 27.2809 53.7394 27.9772 53.7286 28.6594 53.7329 28.8678 53.7329 29.0771 53.7535 29.2854 53.7869 29.8996 53.8679 30.5118 54.0039 31.112 54.1928 31.8709 54.4809 32.6321 55.0282 33.2073 55.8281 32.7228 56.8452 32.7884 57.6991 33.0906 59.1003 33.5397 60.5975 33.6414 62.057 33.4946 62.7349 33.4287 63.3988 33.2603 64.0368 33.0218 64.9014 32.6591 65.6722 32.0717 66.2098 31.2988 66.6934 30.5798 66.9935 29.7411 67.0982 28.8829L67.1123 28.8916C67.1738 28.4199 67.1931 27.9437 67.191 27.4687 67.1597 26.4583 66.9061 25.4468 66.3728 24.5811 66.0425 24.0607 65.6279 23.603 65.1897 23.1734 64.1048 22.2666 62.9053 21.511 61.7481 20.7013 60.6978 19.9759 59.6227 19.2862 58.595 18.5284 57.9808 18.0318 57.5426 17.2642 57.6862 16.4524 57.792 16.0055 58.0121 15.5662 58.405 15.306 59.0883 14.8397 59.966 14.8268 60.7594 14.9099 61.7731 15.0168 62.7295 15.5295 63.375 16.3197L63.3857 16.3187C63.8035 16.826 64.0432 17.4499 64.4265 17.9767 65.1713 18.5175 65.9583 19.067 66.8521 19.3228 66.8661 18.8716 66.6826 18.4538 66.5326 18.0393 66.2951 17.4283 66.0522 16.8184 65.7802 16.2225 65.4434 15.5251 65.0492 14.8559 64.625 14.2092 64.0172 14.5018 63.3341 14.3745 62.7059 14.232 61.8063 14.0352 60.8848 13.8543 59.9625 13.8599Z" stroke="#000000" stroke-width="0.10799" fill="#FFFFFF" transform="matrix(1 0 0 1.10346 32 11.0067)"/><path d="M74.3978 17.0667C72.1848 17.0904 69.9718 17.0462 67.76 17.0883 67.7394 17.4931 68.2241 17.5168 68.4767 17.7025 69.1331 18.1073 69.2853 18.9494 69.228 19.663 69.2367 20.2556 69.2184 20.8482 69.2378 21.4419L69.254 21.5099C69.2248 21.7452 69.2227 21.9839 69.2325 22.2214 69.2292 23.1336 69.2248 24.0456 69.2302 24.9589 69.2281 25.3292 69.2065 25.7005 69.2669 26.0697L69.2582 25.9984C69.269 26.0459 69.2908 26.1399 69.3016 26.1874 69.2876 26.2068 69.2594 26.2478 69.2443 26.2683 69.2076 27.011 69.2355 27.756 69.228 28.4998 69.229 29.0417 69.2281 29.5845 69.2238 30.1286 69.2011 30.6802 69.0165 31.1995 68.82 31.709L68.8415 31.7802 68.7758 31.791C68.3774 32.5057 67.7956 33.0821 67.2073 33.6391 69.0392 33.6845 70.6012 32.5575 72.3576 32.2164 73.0344 32.1063 73.7156 32.0167 74.4043 32.0275 74.5252 31.6874 74.1096 31.6 73.8872 31.4812 73.3053 31.2275 73.0043 30.5842 72.9697 29.9775 72.9665 29.441 72.9804 28.9046 72.9652 28.3691 72.9728 27.8445 72.9783 27.3187 72.9599 26.7951 72.9707 26.3385 73.342 25.9067 73.8181 25.9229 75.3359 25.925 76.8537 25.9057 78.3704 25.9338 78.4902 25.9986 78.6134 26.0622 78.7483 26.0957 78.9588 26.3364 79.0191 26.6452 79.0839 26.9485L79.0181 27.0176C79.031 27.0629 79.0569 27.1557 79.0699 27.201 78.9975 27.4482 79.0376 27.7105 79.0354 27.9652 79.0365 28.6206 79.0213 29.2768 79.0386 29.9331 79.0083 30.5463 78.7223 31.2049 78.1372 31.4714 77.9062 31.6042 77.5035 31.6658 77.5725 32.021 79.7823 32.0296 81.9943 32.0384 84.2041 32.0178 84.3444 31.6918 83.9265 31.6151 83.7225 31.4974 83.1396 31.2588 82.8298 30.6327 82.7736 30.0336 82.7736 29.5144 82.7835 28.9939 82.7651 28.4758 82.7878 27.6856 82.778 26.8934 82.7639 26.1042 82.7898 25.2072 82.7758 24.3081 82.7639 23.4121 82.7985 22.1966 82.7585 20.9809 82.7736 19.7654 82.7746 19.2732 82.7455 18.7518 82.9916 18.3038 83.1611 17.9421 83.485 17.681 83.8542 17.5385 84.0259 17.4565 84.354 17.3344 84.1964 17.0829 81.9878 17.0645 79.7769 17.0635 77.5683 17.084 77.5197 17.4403 77.9268 17.4963 78.1578 17.6356 78.7213 17.8968 78.9812 18.5251 79.0428 19.1102 79.0233 20.2372 79.0429 21.3652 79.031 22.4922 79.044 22.7718 78.8745 23.0019 78.6964 23.1994 78.5182 23.2728 78.338 23.3592 78.1415 23.3495 76.7338 23.3516 75.3272 23.3494 73.9196 23.3504 73.5536 23.3882 73.2318 23.1702 73.0332 22.8798 72.9123 22.2483 72.9954 21.6018 72.9706 20.9648 72.9695 20.7425 72.9685 20.5211 72.9664 20.3008 72.9696 20.1217 72.9696 19.9425 72.9717 19.7643 72.9058 18.9925 73.0526 18.0394 73.8169 17.6519 74.0436 17.504 74.5359 17.4423 74.3977 17.0667Z" stroke="#000000" stroke-width="0.10799" fill="#FFFFFF" transform="matrix(1 0 0 1.10346 32 11.0067)"/><path d="M86.8919 22.3661C86.706 22.3649 86.5204 22.3746 86.335 22.3994 86.145 22.4156 85.9798 22.5117 85.82 22.6045 85.915 23.1216 86.0046 23.7045 85.724 24.1816 85.6139 24.39 85.3828 24.4839 85.2338 24.6534 84.7254 24.702 84.1629 25.0119 83.9114 25.4912 83.8349 25.5829 83.7808 25.8042 83.9697 25.7848 85.5015 25.7999 87.0344 25.8841 88.5554 26.0828 88.5533 25.8766 88.5544 25.6715 88.5554 25.4674 88.5554 25.1134 88.5544 24.7604 88.5554 24.4085 88.5554 23.7953 88.5533 23.1832 88.5554 22.5711 88.0073 22.474 87.4495 22.3701 86.8919 22.3661Z" stroke="#000000" stroke-width="0.10799" fill="#FFFFFF" transform="matrix(1 0 0 1.10346 32 11.0067)"/><path d="M93.3646 24.5142C93.3624 25.4523 93.3591 26.3904 93.3602 27.3285L93.3926 27.2701C94.8985 27.8725 96.3515 28.6087 97.7073 29.5003 97.2388 28.4241 96.575 27.4396 95.8031 26.5587 95.0983 25.7588 94.2649 25.0799 93.3646 24.5142Z" stroke="#000000" stroke-width="0.10799" fill="#FFFFFF" transform="matrix(1 0 0 1.10346 32 11.0067)"/><path d="M88.7823 17.0663C88.0413 17.0671 87.3007 17.0756 86.5616 17.1045 86.5648 17.1573 86.5724 17.2622 86.5756 17.314 87.1564 17.6227 87.8894 17.6183 88.3924 18.09 88.8782 18.4592 89.0347 19.0897 88.9646 19.6726 88.9743 21.2897 88.9613 22.9068 88.9667 24.5238 88.9721 25.4447 88.9516 26.3656 88.972 27.2864 88.9526 27.661 88.9655 28.0355 88.9667 28.4111 88.9613 28.9908 88.9764 29.5716 88.9494 30.1513 88.7336 30.9523 87.9422 31.4046 87.1768 31.5557 86.9339 31.6453 86.5065 31.6476 86.526 31.9995 86.7937 32.0319 87.0657 32.035 87.3367 32.0156 87.409 32.0145 87.5547 32.0123 87.6271 32.0114 90.0754 32.0502 92.5246 32.0145 94.974 32.0296 95.1327 32.0199 95.4567 32.0782 95.3876 31.8148 95.0886 31.5773 94.6805 31.5687 94.334 31.437 93.8256 31.2848 93.3819 30.949 93.1077 30.4967L93.0235 30.4796 93.0493 30.3974C92.9295 29.9332 92.9652 29.453 92.9663 28.9791 92.9652 28.191 92.962 27.4029 92.9652 26.6148 92.9641 25.5861 92.9672 24.5585 92.9618 23.5308 92.9705 22.3779 92.964 21.2249 92.9629 20.072 92.991 19.556 92.868 18.9894 93.1649 18.5284 93.4974 17.9638 94.1331 17.6798 94.7495 17.5427 94.9945 17.452 95.3973 17.4522 95.4146 17.11 94.4419 17.0247 93.4628 17.0948 92.4881 17.0722 91.2541 17.0857 90.0174 17.0649 88.7823 17.0663Z" stroke="#000000" stroke-width="0.10799" fill="#FFFFFF" transform="matrix(1 0 0 1.10346 32 11.0067)"/><path d="M120.989 9.67215C120.06 9.77363 119.158 10.064 118.24 10.2378 115.739 10.7969 113.234 11.3444 110.734 11.9089 110.589 11.9078 110.337 12.1085 110.536 12.2338 111.122 12.4507 111.807 12.5058 112.254 12.997 112.858 13.554 112.931 14.4154 112.893 15.1862 112.877 15.9094 112.882 16.6338 112.894 17.3571 112.878 18.5067 112.88 19.6576 112.894 20.8083 112.868 21.5143 112.893 22.2213 112.884 22.9284 111.79 22.0129 110.699 21.091 109.603 20.1778 108.475 19.2224 107.338 18.2768 106.206 17.3247 104.834 16.1674 103.454 15.0199 102.084 13.8606 100.616 14.0732 99.1496 14.2988 97.6804 14.5072 97.4505 14.5806 96.9712 14.4769 97.0144 14.8451 97.3847 15.1765 97.9568 15.0858 98.3832 15.3265 99.1334 15.6536 99.5242 16.4935 99.4476 17.2858 99.4379 18.3955 99.438 19.5064 99.4445 20.6162 99.4422 21.5564 99.4347 22.4976 99.4445 23.4379 99.4389 24.3026 99.4368 25.1672 99.4422 26.0319 99.4389 26.7919 99.4389 27.552 99.4389 28.313 99.4713 28.9175 99.4334 29.5381 99.1583 30.0898 98.856 30.6468 98.3875 31.1131 97.81 31.3808 97.5563 31.5233 97.2509 31.5946 97.0458 31.8083 96.9454 32.0706 97.2951 32.0373 97.4538 32.0438 98.1101 32.0297 98.7687 32.0653 99.425 32.0243L99.4865 32.0243C101.216 32.0653 102.948 32.0296 104.68 32.0415 105.623 32.021 106.571 32.0825 107.513 32.0102 107.688 31.8083 107.397 31.6745 107.25 31.6043 106.691 31.3603 106.136 31.0645 105.752 30.5755 105.299 30.0012 105.088 29.2651 105.153 28.5365 105.154 27.9503 105.151 27.3628 105.153 26.7757 105.154 25.7371 105.152 24.6976 105.152 23.6581 105.153 22.7848 105.155 21.9116 105.152 21.0393 105.155 20.4715 105.151 19.9048 105.153 19.338 105.623 19.7267 106.083 20.126 106.556 20.5114 107.297 21.1385 108.037 21.7658 108.785 22.3844 110.15 23.5416 111.527 24.6825 112.889 25.8419 112.889 25.9164 112.888 26.0655 112.886 26.14 112.92 26.9787 113.006 27.8272 113.26 28.6304 113.397 29.1388 113.588 29.6331 113.832 30.1016 114.108 30.6511 114.447 31.1714 114.855 31.6334 115.685 32.6135 116.756 33.3887 117.944 33.8777 118.144 33.9576 118.466 34.0419 118.557 33.7688 118.645 32.6925 118.584 31.6075 118.588 30.528 118.616 29.3255 118.586 28.1218 118.597 26.9193 118.587 25.6152 118.622 24.3091 118.575 23.0073 118.625 21.4852 118.593 19.9588 118.589 18.4356 118.613 16.7008 118.589 14.9649 118.6 13.2301 118.642 11.9876 119.475 10.9006 120.501 10.2626 120.685 10.0942 121.071 9.98197 120.989 9.67215Z" stroke="#000000" stroke-width="0.10799" fill="#FFFFFF" transform="matrix(1 0 0 1.10346 32 11.0067)"/><path d="M28.477 36.8776C26.997 36.8884 25.5169 36.869 24.038 36.8874 24.0574 37.1605 24.3878 37.1389 24.5778 37.235 25.0323 37.3623 25.4306 37.7748 25.4188 38.266 25.422 39.5279 25.421 40.7899 25.4199 42.0518 25.4383 42.5484 25.0408 42.9725 24.5799 43.0999 24.3834 43.1927 24.0737 43.1776 24.0273 43.4442 25.5105 43.4788 26.9948 43.4464 28.4791 43.4615 28.6594 43.4356 28.9045 43.5242 29.0232 43.3353 28.7965 43.2101 28.5482 43.1376 28.3075 43.049 27.9048 42.8925 27.5885 42.4932 27.6047 42.0506 27.5983 40.8621 27.6079 39.6735 27.6003 38.485 27.583 38.1579 27.6425 37.8082 27.8876 37.5707 28.1834 37.2317 28.6669 37.2243 29.0263 36.9889 28.8882 36.8249 28.6595 36.896 28.4771 36.8776Z" stroke="#000000" stroke-width="0.10799" fill="#FFFFFF" transform="matrix(1 0 0 1.10346 32 11.0067)"/><path d="M37.6873 36.8637C36.5581 36.9091 35.4268 36.8561 34.2976 36.8906L34.3279 37.0634C34.7899 37.2415 35.3113 37.5102 35.3642 38.0683 35.4009 39.3961 35.3716 40.7261 35.3792 42.0549 35.3975 42.5364 35.0199 42.9531 34.5752 43.088 34.3625 43.1798 34.0763 43.1842 33.9673 43.4228 34.724 43.5016 35.4883 43.4367 36.2494 43.4604 36.4674 43.4399 36.7308 43.521 36.9089 43.3537 36.6671 43.1572 36.3378 43.0448 36.1888 42.7534 36.0258 42.477 36.0194 42.1467 36.0216 41.8369 36.0292 40.6667 36.0151 39.4976 36.0281 38.3285 36.2753 38.7948 36.4243 39.3142 36.706 39.76L36.6746 39.8571C36.708 39.9013 36.774 39.9899 36.8075 40.0342 37.2943 41.1936 37.8319 42.3313 38.3285 43.4874 38.6437 43.333 38.8186 43.0146 38.9578 42.708 39.5915 41.2906 40.2219 39.8711 40.8599 38.4548 40.8632 39.6174 40.8578 40.78 40.8621 41.9426 40.8707 42.3097 40.7995 42.7123 40.5253 42.9768 40.3558 43.1409 40.0438 43.1765 40.0103 43.4486 41.3111 43.4723 42.613 43.4496 43.9138 43.4615 44.0941 43.4324 44.3489 43.5317 44.4611 43.332 44.1308 43.1387 43.7217 43.1097 43.4259 42.856 43.1895 42.6617 43.0362 42.3637 43.0459 42.056 43.0427 40.793 43.0417 39.53 43.0449 38.268 43.0352 37.8362 43.292 37.4002 43.7022 37.2448 43.875 37.1519 44.133 37.1259 44.1653 36.8906 43.0664 36.8668 41.9664 36.8918 40.8675 36.8767 40.3266 38.0522 39.8128 39.2396 39.2817 40.4184 38.743 39.2374 38.2313 38.0425 37.6873 36.8637Z" stroke="#000000" stroke-width="0.10799" fill="#FFFFFF" transform="matrix(1 0 0 1.10346 32 11.0067)"/><path d="M50.1329 36.8787C49.9819 36.8782 49.83 36.8839 49.6989 36.9672 49.8748 37.1065 50.0842 37.1885 50.2861 37.2835 50.6553 37.4563 50.8712 37.8709 50.8626 38.2714 50.8658 39.5301 50.8636 40.7897 50.8626 42.0495 50.8831 42.5418 50.4935 42.9628 50.039 43.0945 49.8415 43.1938 49.509 43.1711 49.4777 43.4518 51.1293 43.4626 52.7808 43.4627 54.4325 43.453 54.4152 43.2015 54.1421 43.2024 53.964 43.1258 53.5268 43.0157 53.1155 42.6747 53.0583 42.2083 53.0291 41.7646 53.055 41.3198 53.0453 40.8761 53.775 40.8761 54.535 40.9118 55.2227 40.6247 55.8272 40.3904 56.4198 39.9758 56.6487 39.3443 56.8495 38.8078 56.6573 38.1914 56.2622 37.7963 55.6393 37.1594 54.7219 36.8929 53.8496 36.8821 52.6611 36.8767 51.4713 36.8852 50.2829 36.8787 50.2334 36.8798 50.1832 36.8789 50.1329 36.8787ZM53.0485 37.3397C53.6779 37.3753 54.2372 37.8308 54.411 38.4343 54.5913 39.0043 54.3806 39.653 53.9359 40.0438 53.802 40.1097 53.6799 40.1929 53.558 40.2771 53.3917 40.3332 53.2223 40.3731 53.0496 40.3979 53.0442 39.3778 53.0464 38.3587 53.0485 37.3397Z" stroke="#000000" stroke-width="0.10799" fill="#FFFFFF" transform="matrix(1 0 0 1.10346 32 11.0067)"/><path d="M65.2642 36.7233C65.3602 36.9424 65.4574 37.1626 65.5502 37.385 65.2955 37.9366 65.0472 38.4904 64.8086 39.0485 64.7611 39.1532 64.7125 39.257 64.665 39.3617 64.2041 40.3861 63.7539 41.4149 63.2908 42.4383 63.1548 42.7438 62.9032 43.0049 62.5761 43.0966 62.3753 43.1895 62.0668 43.1776 62.0085 43.4432 62.8127 43.4777 63.619 43.4475 64.4232 43.4615 64.6046 43.4356 64.8507 43.5253 64.9695 43.3353 64.6575 43.1108 64.0766 43.1592 63.9956 42.7005 64.0172 42.1931 64.3261 41.756 64.515 41.2972 65.4444 41.3122 66.3739 41.296 67.3044 41.3057 67.4642 41.6998 67.6768 42.0743 67.7977 42.4835 67.8776 42.7242 67.7428 43.0016 67.4956 43.0707 67.2786 43.1862 66.9244 43.156 66.864 43.4518 68.3321 43.4572 69.8014 43.4755 71.2695 43.4421 71.2058 43.1776 70.8959 43.1873 70.694 43.0934 70.3313 42.9952 70.082 42.6843 69.9481 42.3475 69.1158 40.4724 68.2792 38.5984 67.4447 36.7233 66.7172 36.7222 65.9907 36.7222 65.2642 36.7233ZM65.902 38.1612C66.2723 38.9945 66.6448 39.8258 67.014 40.6602L64.7903 40.6602C65.1594 39.8268 65.5296 38.9935 65.902 38.1612Z" stroke="#000000" stroke-width="0.10799" fill="#FFFFFF" transform="matrix(1 0 0 1.10346 32 11.0067)"/><path d="M80.3953 36.8794C79.653 36.8756 78.9115 37.0514 78.2678 37.4293 77.4107 37.9172 76.7458 38.7852 76.6248 39.7784 76.5396 40.3289 76.6658 40.8815 76.8591 41.3953 76.8839 41.431 76.9358 41.5022 76.9617 41.5378 77.5457 42.6853 78.8182 43.3666 80.0769 43.4465 81.1717 43.5177 82.3819 43.2586 83.1397 42.4101 83.4042 42.0895 83.6879 41.7161 83.6695 41.2789 83.404 41.5401 83.2421 41.8919 82.9388 42.1165 82.0342 42.8764 80.5747 42.7728 79.7413 41.9545 78.624 40.8869 78.7772 38.8057 80.0327 37.9108 80.8229 37.3517 81.9986 37.4724 82.6765 38.1579 82.9949 38.444 83.1634 38.8456 83.4139 39.1856 83.5121 38.5487 83.47 37.8935 83.3447 37.2641 83.0878 37.2857 82.8362 37.3549 82.5782 37.3614 82.2781 37.302 82.0018 37.1617 81.7114 37.0753 81.2864 36.9486 80.8407 36.8815 80.3953 36.8794Z" stroke="#000000" stroke-width="0.10799" fill="#FFFFFF" transform="matrix(1 0 0 1.10346 32 11.0067)"/><path d="M89.5216 36.8798C89.5194 37.5415 89.5247 38.2023 89.5182 38.864 89.6478 38.877 89.7774 38.865 89.8087 38.7106 89.9501 38.4041 90.0677 38.0598 90.371 37.872 90.8849 37.4963 91.5542 37.6453 92.1468 37.6183 92.1459 39.0972 92.149 40.5749 92.1457 42.0538 92.1641 42.5558 91.7572 42.9811 91.292 43.1053 91.0998 43.1927 90.803 43.1874 90.749 43.44 92.4136 43.4595 94.0845 43.4951 95.7469 43.4217 95.5203 43.0676 94.9956 43.1582 94.7117 42.857 94.0802 42.3377 94.4258 41.4451 94.3167 40.7499 94.3156 40.7013 94.3135 40.6053 94.3113 40.5567 94.3556 39.5787 94.3168 38.5974 94.3309 37.6183 94.9698 37.6377 95.7234 37.4866 96.2308 37.9842 96.5557 38.2239 96.5136 38.742 96.885 38.9256 97.0113 38.2541 96.9098 37.5599 96.9411 36.8798 94.468 36.8787 91.9947 36.8809 89.5216 36.8798Z" stroke="#000000" stroke-width="0.10799" fill="#FFFFFF" transform="matrix(1 0 0 1.10346 32 11.0067)"/></g></svg>