<svg width="1080" height="720" xmlns="http://www.w3.org/2000/svg" xmlns:xlink="http://www.w3.org/1999/xlink" overflow="hidden"><defs><clipPath id="clip0"><rect x="100" y="-52" width="1080" height="720"/></clipPath></defs><g clip-path="url(#clip0)" transform="translate(-100 52)"><path d="M1033.26 357.087 1042.63 357.087 1042.63 358.431 1038.73 358.431 1038.73 369.058 1037.19 369.058 1037.19 358.431 1033.26 358.431Z" fill="#FFFFFF"/><path d="M1045.73 369.058 1044.16 369.058 1044.16 357.087 1046.35 357.087 1049.76 367.245 1053.23 357.087 1055.38 357.087 1055.38 369.058 1053.82 369.058 1053.82 359.337 1050.54 369.058 1048.98 369.058 1045.73 359.337Z" fill="#FFFFFF"/><path d="M855.755 262.476 786.149 262.476C765.927 262.476 756.05 274.978 756.05 291.138L756.05 340.428C756.05 350.461 751.268 357.681 741.235 357.681L675.598 357.681C675.184 357.681 674.848 358.017 674.848 358.431L674.848 368.339C674.848 368.753 675.184 369.089 675.598 369.089L748.674 369.089C768.896 369.089 778.804 356.587 778.804 340.459L778.804 291.138C778.804 281.073 783.555 273.853 793.588 273.853L855.755 273.853C856.17 273.853 856.506 273.517 856.506 273.103L856.505 263.226C856.505 262.812 856.17 262.476 855.755 262.476" fill="#FFFFFF"/><path d="M649.968 262.507 523.883 262.507C523.469 262.507 523.133 262.843 523.133 263.258L523.133 273.166C523.15 273.585 523.495 273.916 523.914 273.916L642.404 273.916C652.437 273.916 657.188 281.136 657.188 291.169 657.188 301.202 652.437 308.453 642.404 308.453L548.638 308.453C534.072 308.453 523.102 320.674 523.102 336.896L523.102 368.339C523.084 368.736 523.391 369.071 523.788 369.089 523.809 369.09 523.831 369.09 523.852 369.089L545.199 369.089C545.614 369.089 545.95 368.753 545.95 368.339L545.95 336.865C545.95 326.831 551.763 319.799 560.046 319.799L649.906 319.799C670.128 319.799 680.005 307.297 680.005 291.169 680.005 275.041 670.128 262.507 649.906 262.507" fill="#FFFFFF"/><path d="M1021.41 346.304 1000.06 346.304C999.643 346.304 999.298 345.973 999.281 345.554L999.281 273.822C999.281 262.789 991.655 259.194 980.934 265.821L852.317 344.803C847.254 347.929 845.566 351.398 846.785 353.993 848.004 356.587 850.598 357.775 856.162 357.775L975.496 357.775C975.816 357.809 976.086 358.03 976.183 358.337L976.183 368.401C976.183 368.821 976.514 369.166 976.933 369.183L998.375 369.183C998.794 369.166 999.125 368.821 999.125 368.401L999.125 358.462C999.125 358.043 999.456 357.698 999.875 357.681L1021.41 357.681C1021.83 357.681 1022.17 357.35 1022.19 356.931L1022.19 347.054C1022.17 346.635 1021.83 346.303 1021.41 346.304M976.371 345.491C976.371 345.911 976.04 346.256 975.621 346.272L875.603 346.272C874.79 346.272 874.384 346.054 874.259 345.772 874.134 345.491 874.259 344.96 875.009 344.553L974.527 283.261C975.214 282.824 976.371 282.917 976.371 284.261Z" fill="#FFFFFF"/><path d="M308.407 221.531 308.407 382.873 344.914 394.469 344.914 259.132C344.914 252.881 347.727 248.567 352.29 250.036 358.26 251.693 359.416 257.538 359.416 263.851L359.416 317.892C382.171 328.894 400.049 317.892 400.049 288.887 400.08 259.132 389.609 245.942 358.791 235.409 342.283 229.799 325.46 225.165 308.407 221.531Z" fill="#FFFFFF"/><path d="M351.821 370.902 410.551 349.961C417.208 347.585 418.239 344.178 412.832 342.428 405.578 340.75 397.998 341.14 390.953 343.553L351.821 357.306 351.821 335.427 354.072 334.677C362.922 331.807 372.045 329.859 381.295 328.863 398.412 327.116 415.703 329.176 431.929 334.895 449.151 340.365 451.089 348.367 446.713 353.899 442.338 359.431 431.617 363.276 431.617 363.276L351.821 392.031Z" fill="#FFFFFF"/><path d="M241.427 368.651C223.736 363.682 220.798 353.336 228.924 347.335 235.194 343.27 241.959 340.024 249.053 337.677L301.406 318.924 301.406 340.115 263.899 353.618C257.242 355.993 256.242 359.369 261.618 361.15 268.872 362.83 276.453 362.44 283.497 360.025L301.562 353.461 301.562 372.621 297.968 373.184C279.124 376.238 259.82 374.683 241.708 368.651" fill="#FFFFFF"/><path d="M427.991 385.623C427.988 383.733 428.742 381.921 430.085 380.591 432.865 377.829 437.357 377.844 440.119 380.623 441.44 381.952 442.181 383.75 442.181 385.623 442.181 389.53 439.024 392.701 435.117 392.718 433.231 392.737 431.416 391.993 430.085 390.655 428.742 389.326 427.988 387.513 427.991 385.623ZM435.117 394.187C439.828 394.153 443.633 390.334 443.65 385.623 443.646 383.361 442.747 381.193 441.15 379.591 439.559 377.973 437.386 377.061 435.117 377.059 430.388 377.059 426.553 380.893 426.553 385.623 426.553 390.353 430.388 394.187 435.117 394.187" fill="#FFFFFF"/><path d="M437.43 383.467C437.476 383.881 437.312 384.292 436.993 384.561 436.614 384.781 436.181 384.89 435.743 384.873L433.117 384.873 433.117 382.31 435.93 382.31C436.258 382.223 436.603 382.223 436.93 382.31 437.311 382.563 437.507 383.016 437.43 383.467ZM439.306 389.718C439.306 389.718 439.087 389.53 439.024 389.311 439.002 389.072 439.002 388.832 439.024 388.593L439.024 387.374C439.041 386.922 438.921 386.475 438.681 386.092 438.522 385.904 438.331 385.746 438.118 385.623 438.408 385.453 438.654 385.218 438.837 384.936 439.104 384.494 439.234 383.983 439.212 383.467 439.29 382.473 438.724 381.541 437.806 381.154 437.234 380.908 436.613 380.801 435.993 380.841L431.461 380.841 431.461 390.218 433.117 390.218 433.117 386.311 435.711 386.311C436.052 386.248 436.402 386.248 436.743 386.311 437.103 386.525 437.309 386.925 437.274 387.342L437.274 389.593C437.257 389.707 437.257 389.823 437.274 389.937L439.118 389.937 439.118 389.374" fill="#FFFFFF"/></g></svg>